<?xml version="1.0" encoding="UTF-8" standalone="no"?>
<!DOCTYPE svg PUBLIC "-//W3C//DTD SVG 1.1//EN" "http://www.w3.org/Graphics/SVG/1.1/DTD/svg11.dtd">
<svg xmlns="http://www.w3.org/2000/svg" version="1.1" viewBox="0.00 0.00 1730.00 1212.00">
<circle fill="#f80009" cx="661.18" cy="504.29" r="14.71"/>
<path fill="#f80009" d="
  M 874.27 614.60
  C 874.17 635.91 874.20 653.66 874.35 667.85
  C 874.42 673.81 877.27 677.55 882.91 679.06
  C 887.38 680.25 891.49 681.09 895.22 681.57
  C 895.53 681.61 895.76 681.87 895.77 682.18
  L 895.82 685.66
  C 895.82 685.90 895.70 686.02 895.46 686.02
  L 770.76 686.02
  C 770.59 686.02 770.50 685.93 770.50 685.76
  L 770.50 682.18
  C 770.50 681.85 770.66 681.68 770.99 681.65
  C 778.50 681.14 785.33 678.98 787.32 670.85
  C 788.22 667.15 788.67 663.06 788.67 658.58
  C 788.68 637.98 788.69 617.45 788.68 596.98
  C 788.67 583.55 784.72 569.99 768.50 569.57
  C 756.17 569.24 746.67 577.51 738.43 585.68
  C 738.16 585.95 738.02 586.28 738.02 586.66
  C 738.06 612.54 738.05 638.62 737.98 664.90
  C 737.97 672.83 739.23 678.17 747.72 680.27
  C 750.73 681.02 753.71 681.48 756.67 681.67
  C 756.90 681.68 757.01 681.81 757.01 682.04
  L 757.01 685.63
  C 757.01 685.89 756.88 686.02 756.62 686.02
  L 563.03 686.02
  C 562.70 686.02 562.54 685.86 562.54 685.53
  L 562.53 682.02
  C 562.53 681.76 562.66 681.63 562.92 681.62
  C 567.47 681.45 571.68 680.71 575.57 679.42
  C 583.35 676.83 584.75 669.76 584.75 662.49
  C 584.76 615.12 584.75 567.86 584.72 520.70
  C 584.72 517.57 584.14 514.53 582.99 511.60
  C 581.26 507.19 576.55 506.11 572.14 506.26
  C 568.85 506.37 565.61 506.57 562.44 506.84
  C 562.15 506.87 562.00 506.73 562.00 506.44
  L 562.00 502.71
  C 562.00 502.34 562.18 502.12 562.54 502.03
  C 577.59 498.54 592.57 494.42 607.50 489.69
  C 608.23 489.46 608.98 490.01 608.98 490.78
  C 608.97 550.27 608.98 608.44 609.00 665.30
  C 609.01 672.63 611.24 678.51 619.11 680.25
  C 628.12 682.24 636.19 681.91 643.31 679.27
  C 650.94 676.43 651.45 666.77 651.43 659.86
  C 651.37 637.02 651.37 613.36 651.44 588.88
  C 651.46 582.82 650.84 573.38 642.93 573.10
  C 639.14 572.96 634.83 573.23 630.02 573.90
  C 629.87 573.93 629.79 573.86 629.79 573.71
  L 629.79 569.78
  C 629.78 569.64 629.85 569.55 629.99 569.50
  C 645.06 564.99 659.72 559.77 673.99 553.84
  C 674.72 553.53 675.53 554.07 675.53 554.86
  C 675.66 588.03 675.65 622.07 675.50 657.00
  C 675.48 660.66 675.79 664.90 676.42 669.73
  C 677.19 675.68 680.64 679.01 686.35 680.30
  C 693.68 681.96 703.21 682.57 709.03 677.97
  C 713.59 674.35 713.87 666.35 713.87 660.92
  C 713.86 637.09 713.87 613.08 713.89 588.89
  C 713.90 581.98 713.93 571.32 705.02 570.54
  C 701.75 570.25 698.65 570.53 695.72 571.40
  C 695.59 571.44 695.46 571.34 695.46 571.21
  L 695.50 566.69
  C 695.50 566.62 695.53 566.58 695.59 566.57
  C 708.69 562.88 721.78 558.63 734.87 553.82
  C 736.01 553.40 737.22 554.24 737.22 555.46
  L 737.22 576.28
  C 737.22 576.52 737.51 576.64 737.68 576.48
  C 744.72 569.87 752.02 563.26 760.27 558.50
  C 766.45 554.93 773.24 553.34 780.64 553.73
  C 805.33 555.03 812.84 576.53 812.82 597.75
  C 812.81 619.09 812.80 641.08 812.81 663.71
  C 812.81 671.03 813.94 677.89 822.05 680.22
  C 825.22 681.13 828.20 681.74 831.52 681.22
  C 836.80 680.38 841.13 679.29 844.52 677.94
  C 848.83 676.23 849.87 671.91 849.88 667.50
  C 849.97 620.58 850.03 572.16 850.06 522.25
  C 850.06 515.69 849.22 507.42 841.03 506.52
  C 837.37 506.12 833.33 506.26 828.92 506.94
  C 828.61 506.99 828.46 506.85 828.46 506.54
  L 828.45 502.55
  C 828.45 502.32 828.57 502.17 828.80 502.12
  C 843.66 498.61 858.32 494.45 872.79 489.64
  C 873.50 489.40 874.24 489.94 874.24 490.69
  L 874.24 610.30
  C 874.24 610.51 874.50 610.62 874.66 610.48
  C 888.39 598.27 901.90 586.24 915.18 574.39
  C 918.12 571.76 924.29 563.27 916.08 561.63
  C 912.66 560.94 909.38 560.64 906.25 560.73
  C 905.98 560.74 905.76 560.52 905.76 560.25
  L 905.77 557.01
  C 905.77 556.70 905.93 556.54 906.24 556.54
  L 964.27 556.54
  C 964.43 556.54 964.51 556.62 964.51 556.77
  L 964.52 560.74
  C 964.52 560.92 964.43 561.00 964.26 560.99
  C 955.55 560.58 947.58 562.52 940.34 566.83
  C 923.83 576.66 907.99 591.66 894.40 604.73
  C 894.23 604.90 894.21 605.07 894.36 605.26
  C 908.68 623.42 923.23 641.86 938.00 660.57
  C 946.68 671.55 956.95 680.75 971.43 681.66
  C 971.65 681.67 971.76 681.79 971.76 682.01
  L 971.76 685.76
  C 971.76 685.93 971.67 686.02 971.49 686.02
  L 909.26 686.02
  C 909.08 686.02 908.99 685.93 908.99 685.76
  L 908.98 682.00
  C 908.98 681.85 909.11 681.72 909.26 681.73
  C 912.07 681.76 915.46 681.71 918.15 680.76
  C 921.05 679.74 920.95 676.35 919.39 674.26
  C 904.27 654.05 889.35 634.13 874.63 614.48
  C 874.39 614.16 874.27 614.20 874.27 614.60
  Z"
/>
<path fill="#1d00c6" d="
  M 1121.85 668.38
  C 1145.41 669.31 1168.17 670.19 1190.12 671.03
  C 1205.53 671.61 1218.56 666.87 1230.60 657.79
  C 1231.04 657.46 1231.21 657.56 1231.10 658.10
  L 1229.41 666.71
  C 1229.34 667.08 1229.17 667.39 1228.91 667.66
  C 1219.67 677.18 1207.76 686.24 1194.79 688.80
  C 1189.17 689.91 1182.81 689.39 1176.78 689.14
  C 1142.71 687.73 1108.69 686.34 1074.72 684.97
  C 1074.54 684.96 1074.45 684.74 1074.58 684.61
  L 1092.30 666.73
  C 1092.59 666.44 1092.94 666.29 1093.35 666.30
  C 1104.29 666.48 1117.58 665.32 1123.54 654.64
  C 1128.51 645.72 1130.96 634.96 1132.98 624.81
  C 1140.39 587.48 1147.92 549.74 1155.56 511.57
  C 1155.59 511.43 1155.48 511.31 1155.34 511.30
  C 1124.56 511.06 1097.67 529.25 1098.70 562.70
  C 1098.71 563.13 1098.52 563.45 1098.13 563.64
  L 1075.03 574.81
  C 1074.75 574.95 1074.62 574.86 1074.64 574.55
  C 1075.33 564.45 1077.70 554.88 1081.77 545.84
  C 1098.40 508.86 1143.45 501.65 1180.22 501.58
  C 1205.54 501.53 1230.43 501.52 1254.89 501.55
  C 1255.04 501.55 1255.15 501.70 1255.10 501.84
  L 1244.22 536.42
  C 1244.17 536.56 1244.08 536.63 1243.93 536.63
  L 1236.63 536.62
  C 1236.37 536.62 1236.18 536.37 1236.25 536.12
  C 1239.24 524.95 1236.05 517.83 1226.67 514.75
  C 1222.19 513.28 1217.13 512.31 1211.49 511.83
  C 1202.34 511.05 1192.44 510.69 1181.79 510.76
  C 1181.59 510.76 1181.42 510.90 1181.38 511.10
  L 1167.17 583.53
  C 1167.11 583.83 1167.23 583.98 1167.53 583.98
  L 1221.95 583.97
  C 1222.11 583.97 1222.19 584.16 1222.08 584.27
  L 1210.13 596.39
  C 1209.88 596.65 1209.57 596.76 1209.22 596.71
  C 1195.03 594.96 1180.28 592.99 1165.74 593.25
  C 1165.35 593.26 1165.12 593.45 1165.05 593.84
  C 1161.64 612.83 1157.87 633.22 1145.12 647.89
  C 1138.70 655.27 1130.89 661.92 1121.70 667.83
  C 1121.17 668.17 1121.22 668.35 1121.85 668.38
  Z"
/>
<path fill="#1d00c6" d="
  M 1062.71 611.78
  C 1070.76 603.74 1066.42 590.89 1056.11 587.89
  C 1046.40 585.07 1041.28 592.93 1035.30 598.54
  C 1035.02 598.80 1034.62 598.89 1034.26 598.76
  C 1028.45 596.68 1022.70 596.04 1017.02 596.83
  C 1016.15 596.95 1016.02 596.70 1016.64 596.07
  C 1021.23 591.39 1025.88 586.72 1030.61 582.05
  C 1038.53 574.22 1047.60 571.22 1057.81 573.05
  C 1081.04 577.21 1089.34 605.44 1073.38 622.20
  C 1068.90 626.90 1062.71 633.14 1054.80 640.92
  C 1051.10 644.55 1047.77 647.10 1044.80 648.56
  C 1031.19 655.28 1014.59 650.55 1006.77 637.20
  C 1006.69 637.06 1006.71 636.88 1006.83 636.77
  L 1016.92 626.72
  C 1017.57 626.07 1018.06 626.18 1018.38 627.05
  C 1020.19 632.06 1023.70 635.18 1028.90 636.39
  C 1034.42 637.67 1039.09 635.48 1043.00 631.55
  C 1049.87 624.64 1056.44 618.05 1062.71 611.78
  Z"
/>
<path fill="#f80009" d="
  M 994.98 666.19
  C 1001.49 669.40 1008.00 666.95 1012.73 661.83
  C 1014.52 659.90 1016.35 658.07 1018.22 656.32
  C 1018.47 656.08 1018.76 656.02 1019.08 656.14
  C 1024.71 658.25 1030.58 658.89 1036.71 658.08
  C 1037.38 657.99 1037.48 658.19 1037.00 658.67
  C 1032.34 663.36 1027.40 668.27 1022.18 673.42
  C 1001.93 693.39 968.62 677.64 972.05 649.31
  C 972.84 642.74 975.87 636.81 981.14 631.54
  C 987.55 625.12 993.88 618.79 1000.15 612.54
  C 1009.68 603.04 1022.75 600.74 1034.87 606.56
  C 1039.84 608.95 1043.75 612.68 1046.61 617.76
  C 1046.72 617.96 1046.70 618.14 1046.53 618.31
  L 1036.66 628.14
  C 1035.94 628.85 1035.40 628.74 1035.04 627.79
  C 1032.10 620.01 1023.24 615.68 1015.49 619.62
  C 1013.84 620.46 1011.90 621.99 1009.69 624.20
  C 1003.45 630.43 996.99 636.88 990.32 643.57
  C 987.37 646.53 986.21 650.43 986.85 655.26
  C 987.50 660.19 990.21 663.84 994.98 666.19
  Z"
/>
</svg>
